#!OML:ASF H:\Punching\Project 1\Capture day 1\Session 1\female.ASF
:FULLY-SPECIFIED
:DEGREES
2251
root -2.09728 15.4813 8.96021 10.7265 -9.67344 -1.61986
lowerback -1.93014 -0.656944 6.44443
upperback -6.3963 -0.793783 0.306224
thorax -5.67401 -0.727482 -3.26077
lowerneck -6.96328 6.8989 11.1153
upperneck 31.2773 11.7246 -12.3178
head 13.0084 5.13906 -5.1433
rclavicle 7.34261e-015 -1.35174e-014
rhumerus -8.11025 14.4431 -77.5592
rradius 117.053
rwrist -7.92497
rhand -26.733 -6.25718
rfingers 7.12502
rthumb -0.162165 -36.2369
lclavicle 7.34261e-015 -1.35174e-014
lhumerus -30.9115 -3.02285 57.1643
lradius 127.731
lwrist -2.8214
lhand -20.3744 18.0052
lfingers 7.12502
lthumb 5.9784 47.9009
rfemur -5.74277 5.11399 17.9005
rtibia 22.3365
rfoot -22.1381 -16.2395
rtoes -7.78907
lfemur -33.5322 2.77242 -7.38796
ltibia 39.9801
lfoot -11.9407 12.8778
ltoes -8.36981
2252
root -2.05564 15.4832 9.0357 10.9121 -10.2689 -1.63047
lowerback -1.99221 -0.658171 6.45222
upperback -6.4691 -0.800224 0.276633
thorax -5.71788 -0.735755 -3.29579
lowerneck -6.85455 7.08624 11.4016
upperneck 31.0808 11.9772 -12.462
head 12.9759 5.27369 -5.2075
rclavicle 3.60918e-014 3.37934e-015
rhumerus -7.41336 15.3317 -78.1195
rradius 117.696
rwrist -7.2766
rhand -26.9921 -6.20057
rfingers 7.12502
rthumb -0.412428 -36.1799
lclavicle 3.60918e-014 3.37934e-015
lhumerus -30.3782 -3.29037 57.3896
lradius 128.308
lwrist -3.30156
lhand -20.7508 17.7787
lfingers 7.12502
lthumb 5.61491 47.6843
rfemur -5.51625 5.42396 17.5919
rtibia 21.7631
rfoot -21.9501 -16.0816
rtoes -8.13082
lfemur -33.4797 2.15541 -6.80124
ltibia 37.7832
lfoot -11.5896 13.8096
ltoes -8.01155
2253
root -2.01089 15.4841 9.11303 11.104 -10.9037 -1.63539
lowerback -2.05565 -0.66822 6.44575
upperback -6.5433 -0.818591 0.254271
thorax -5.76322 -0.749166 -3.31489
lowerneck -6.77077 7.28953 11.6916
upperneck 30.8928 12.2517 -12.6061
head 12.9581 5.4172 -5.26816
rclavicle 3.21037e-014 4.57205e-015
rhumerus -6.71699 16.2744 -78.7068
rradius 118.272
rwrist -6.6468
rhand -27.3141 -6.03928
rfingers 7.12502
rthumb -0.723462 -36.0178
lclavicle 3.21037e-014 4.57205e-015
lhumerus -29.8377 -3.51606 57.6106
lradius 128.826
lwrist -3.73946
lhand -21.173 17.5253
lfingers 7.12502
lthumb 5.20732 47.4413
rfemur -5.30138 5.74229 17.2492
rtibia 21.1834
rfoot -21.7555 -15.8995
rtoes -8.51115
lfemur -33.3991 1.5509 -6.21016
ltibia 35.6608
lfoot -11.0926 14.6526
ltoes -7.72107
2254
root -1.96285 15.4835 9.1919 11.2976 -11.5751 -1.64366
lowerback -2.10417 -0.682933 6.4356
upperback -6.62223 -0.841819 0.238531
thorax -5.8225 -0.765193 -3.32457
lowerneck -6.68066 7.50419 11.9818
upperneck 30.6991 12.5419 -12.7463
head 12.9407 5.56828 -5.32424
rclavicle -5.03546e-014 -2.8625e-014
rhumerus -6.04764 17.2603 -79.3135
rradius 118.785
rwrist -6.01963
rhand -27.8205 -5.61076
rfingers 7.12502
rthumb -1.21256 -35.5871
lclavicle -5.03546e-014 -2.8625e-014
lhumerus -29.3035 -3.72141 57.8381
lradius 129.298
lwrist -4.13445
lhand -21.6336 17.2572
lfingers 7.12502
lthumb 4.76262 47.1836
rfemur -5.09727 6.0754 16.8811
rtibia 20.6053
rfoot -21.5565 -15.6944
rtoes -8.93257
lfemur -33.2984 0.987655 -5.62235
ltibia 33.6602
lfoot -10.4438 15.3587
ltoes -7.57106
2255
root -1.91142 15.4815 9.27216 11.4897 -12.2859 -1.65195
lowerback -2.13751 -0.702989 6.41662
upperback -6.70216 -0.870995 0.229621
thorax -5.89183 -0.783868 -3.32173
lowerneck -6.59749 7.73198 12.2897
upperneck 30.5042 12.8515 -12.8978
head 12.9319 5.72835 -5.38417
rclavicle 2.77056e-014 1.80894e-014
rhumerus -5.38774 18.2876 -79.9369
rradius 119.247
rwrist -5.43663
rhand -28.4572 -4.98484
rfingers 7.12502
rthumb -1.82746 -34.9568
lclavicle 2.77056e-014 1.80894e-014
lhumerus -28.766 -3.90378 58.0679
lradius 129.732
lwrist -4.46969
lhand -22.1272 16.9661
lfingers 7.12502
lthumb 4.28592 46.9027
rfemur -4.90424 6.42221 16.483
rtibia 20.0294
rfoot -21.363 -15.4673
rtoes -9.33735
lfemur -33.1839 0.485033 -5.05903
ltibia 31.8209
lfoot -9.69035 15.8977
ltoes -7.53129
2256
root -1.8564 15.478 9.35369 11.6803 -13.0277 -1.66457
lowerback -2.15211 -0.727774 6.39671
upperback -6.78797 -0.904753 0.227776
thorax -5.97858 -0.805244 -3.31045
lowerneck -6.49863 7.96582 12.6068
upperneck 30.3017 13.1711 -13.0554
head 12.9216 5.89392 -5.4461
rclavicle 8.66577e-014 2.14687e-014
rhumerus -4.76528 19.3435 -80.566
rradius 119.694
rwrist -4.93391
rhand -29.1239 -4.27199
rfingers 7.12502
rthumb -2.47133 -34.2374
lclavicle 8.66577e-014 2.14687e-014
lhumerus -28.242 -4.08145 58.311
lradius 130.15
lwrist -4.76016
lhand -22.6229 16.6947
lfingers 7.12502
lthumb 3.80726 46.6405
rfemur -4.7163 6.7771 16.0596
rtibia 19.4493
rfoot -21.1774 -15.2174
rtoes -9.73674
lfemur -33.0685 0.0535678 -4.53232
ltibia 30.1808
lfoot -8.89007 16.2655
ltoes -7.49039
2257
root -1.7979 15.4739 9.43667 11.8703 -13.795 -1.68341
lowerback -2.15866 -0.759413 6.37936
upperback -6.87368 -0.946863 0.233892
thorax -6.07072 -0.830838 -3.29178
lowerneck -6.42409 8.21434 12.968
upperneck 30.1166 13.5125 -13.2364
head 12.936 6.07033 -5.52097
rclavicle 1.99033e-014 -1.74931e-014
rhumerus -4.15316 20.4259 -81.1885
rradius 120.143
rwrist -4.55585
rhand -29.6736 -3.75685
rfingers 7.12502
rthumb -3.00225 -33.7155
lclavicle 1.99033e-014 -1.74931e-014
lhumerus -27.7117 -4.24775 58.5695
lradius 130.566
lwrist -4.99367
lhand -23.112 16.4588
lfingers 7.12502
lthumb 3.33499 46.4124
rfemur -4.53262 7.13672 15.6143
rtibia 18.8555
rfoot -20.9875 -14.9485
rtoes -10.15
lfemur -32.9668 -0.301913 -4.05591
ltibia 28.774
lfoot -8.09145 16.4909
ltoes -7.32689
2258
root -1.73588 15.4688 9.52121 12.0562 -14.5714 -1.71015
lowerback -2.15399 -0.801104 6.36452
upperback -6.95793 -1.00127 0.25016
thorax -6.16897 -0.862497 -3.26316
lowerneck -6.34766 8.47033 13.3532
upperneck 29.9247 13.8652 -13.432
head 12.9554 6.25297 -5.60291
rclavicle -2.17793e-014 -1.78906e-014
rhumerus -3.56109 21.5228 -81.7911
rradius 120.607
rwrist -4.30251
rhand -30.0812 -3.41839
rfingers 7.12502
rthumb -3.39591 -33.3711
lclavicle -2.17793e-014 -1.78906e-014
lhumerus -27.1702 -4.41419 58.8543
lradius 130.977
lwrist -5.2207
lhand -23.5898 16.2878
lfingers 7.12502
lthumb 2.87352 46.2482
rfemur -4.33937 7.49961 15.1536
rtibia 18.2391
rfoot -20.7844 -14.6792
rtoes -10.5891
lfemur -32.8974 -0.566063 -3.65403
ltibia 27.6377
lfoot -7.3025 16.6138
ltoes -6.88795
2259
root -1.67037 15.4626 9.60736 12.2369 -15.3418 -1.75021
lowerback -2.13891 -0.856429 6.35764
upperback -7.0386 -1.07264 0.279488
thorax -6.27119 -0.902607 -3.22438
lowerneck -6.26336 8.73235 13.7551
upperneck 29.7215 14.2257 -13.633
head 12.9747 6.44069 -5.68739
rclavicle -2.41275e-014 2.98177e-015
rhumerus -2.97822 22.6309 -82.3597
rradius 121.101
rwrist -4.18522
rhand -30.2953 -3.32764
rfingers 7.12502
rthumb -3.60267 -33.2769
lclavicle -2.41275e-014 2.98177e-015
lhumerus -26.5856 -4.55751 59.1627
lradius 131.406
lwrist -5.34126
lhand -23.9139 16.1882
lfingers 7.12502
lthumb 2.56051 46.1526
rfemur -4.12885 7.85835 14.6881
rtibia 17.5979
rfoot -20.5724 -14.4165
rtoes -11.0536
lfemur -32.8811 -0.693468 -3.36174
ltibia 26.8177
lfoot -6.50476 16.675
ltoes -6.05999
2260
root -1.60148 15.4546 9.69529 12.4107 -16.096 -1.8037
lowerback -2.11538 -0.928351 6.35642
upperback -7.11162 -1.16505 0.324501
thorax -6.37208 -0.952698 -3.17122
lowerneck -6.1724 9.00374 14.1785
upperneck 29.5003 14.6001 -13.8481
head 12.9941 6.63594 -5.77726
rclavicle 2.44754e-014 6.75868e-015
rhumerus -2.39633 23.7452 -82.8847
rradius 121.584
rwrist -4.12337
rhand -30.4177 -3.26342
rfingers 7.12502
rthumb -3.72081 -33.2107
lclavicle 2.44754e-014 6.75868e-015
lhumerus -25.9542 -4.6754 59.5033
lradius 131.825
lwrist -5.41355
lhand -24.1287 16.1001
lfingers 7.12502
lthumb 2.35306 46.0669
rfemur -3.89896 8.21297 14.2226
rtibia 16.9399
rfoot -20.3536 -14.1746
rtoes -11.5307
lfemur -32.9391 -0.624628 -3.22267
ltibia 26.368
lfoot -5.66534 16.6955
ltoes -4.67128
2261
root -1.52922 15.4445 9.78486 12.5797 -16.8266 -1.87341
lowerback -2.08519 -1.01806 6.36254
upperback -7.17455 -1.28013 0.387399
thorax -6.46806 -1.0134 -3.10221
lowerneck -6.07661 9.28382 14.6204
upperneck 29.257 14.9869 -14.0762
head 13.012 6.83782 -5.87137
rclavicle -1.21134e-014 -3.06128e-014
rhumerus -1.80598 24.8544 -83.3628
rradius 122.052
rwrist -4.09497
rhand -30.4702 -3.1272
rfingers 7.12502
rthumb -3.7715 -33.0736
lclavicle -1.21134e-014 -3.06128e-014
lhumerus -25.2621 -4.76612 59.882
lradius 132.218
lwrist -5.44227
lhand -24.2258 16.0084
lfingers 7.12502
lthumb 2.25925 45.9762
rfemur -3.65581 8.55539 13.7616
rtibia 16.2796
rfoot -20.1405 -13.9503
rtoes -11.9958
lfemur -33.085 -0.273135 -3.29221
ltibia 26.3351
lfoot -4.81565 16.6242
ltoes -2.8815
